<mxfile host="Electron" agent="Mozilla/5.0 (Macintosh; Intel Mac OS X 10_15_7) AppleWebKit/537.36 (KHTML, like Gecko) draw.io/27.0.9 Chrome/134.0.6998.205 Electron/35.4.0 Safari/537.36" version="27.0.9">
  <diagram name="Page-1" id="_XsJ5RISwm-DCJaWn4uy">
    <mxGraphModel dx="706" dy="503" grid="1" gridSize="10" guides="1" tooltips="1" connect="1" arrows="1" fold="1" page="1" pageScale="1" pageWidth="850" pageHeight="1100" math="0" shadow="0">
      <root>
        <mxCell id="0" />
        <mxCell id="1" parent="0" />
        <mxCell id="Xh_-8GFSFD8Ks_VT3ShR-91" value="" style="sketch=0;points=[[0.5,0,0],[1,0.5,0],[0.5,1,0],[0,0.5,0],[0.145,0.145,0],[0.8555,0.145,0],[0.855,0.8555,0],[0.145,0.855,0]];verticalLabelPosition=bottom;html=1;verticalAlign=top;aspect=fixed;align=center;pointerEvents=1;shape=mxgraph.cisco19.rect;prIcon=router;fillColor=#FAFAFA;strokeColor=#005073;" vertex="1" parent="1">
          <mxGeometry x="360" y="350" width="90" height="90" as="geometry" />
        </mxCell>
        <mxCell id="Xh_-8GFSFD8Ks_VT3ShR-92" value="" style="sketch=0;points=[[0.5,0,0],[1,0.5,0],[0.5,1,0],[0,0.5,0],[0.145,0.145,0],[0.8555,0.145,0],[0.855,0.8555,0],[0.145,0.855,0]];verticalLabelPosition=bottom;html=1;verticalAlign=top;aspect=fixed;align=center;pointerEvents=1;shape=mxgraph.cisco19.rect;prIcon=router;fillColor=#FAFAFA;strokeColor=#005073;" vertex="1" parent="1">
          <mxGeometry x="280" y="570" width="90" height="90" as="geometry" />
        </mxCell>
        <mxCell id="Xh_-8GFSFD8Ks_VT3ShR-93" value="" style="sketch=0;points=[[0.5,0,0],[1,0.5,0],[0.5,1,0],[0,0.5,0],[0.145,0.145,0],[0.8555,0.145,0],[0.855,0.8555,0],[0.145,0.855,0]];verticalLabelPosition=bottom;html=1;verticalAlign=top;aspect=fixed;align=center;pointerEvents=1;shape=mxgraph.cisco19.rect;prIcon=router;fillColor=#FAFAFA;strokeColor=#005073;" vertex="1" parent="1">
          <mxGeometry x="60" y="470" width="90" height="90" as="geometry" />
        </mxCell>
        <mxCell id="Xh_-8GFSFD8Ks_VT3ShR-94" value="" style="endArrow=none;html=1;rounded=0;exitX=0.5;exitY=0;exitDx=0;exitDy=0;exitPerimeter=0;entryX=0;entryY=0.5;entryDx=0;entryDy=0;entryPerimeter=0;" edge="1" parent="1" source="Xh_-8GFSFD8Ks_VT3ShR-93" target="Xh_-8GFSFD8Ks_VT3ShR-91">
          <mxGeometry width="50" height="50" relative="1" as="geometry">
            <mxPoint x="280" y="450" as="sourcePoint" />
            <mxPoint x="190" y="395" as="targetPoint" />
            <Array as="points">
              <mxPoint x="105" y="395" />
            </Array>
          </mxGeometry>
        </mxCell>
        <mxCell id="Xh_-8GFSFD8Ks_VT3ShR-95" value="" style="endArrow=none;html=1;rounded=0;exitX=0;exitY=0.5;exitDx=0;exitDy=0;exitPerimeter=0;entryX=0.5;entryY=1;entryDx=0;entryDy=0;entryPerimeter=0;" edge="1" parent="1" source="Xh_-8GFSFD8Ks_VT3ShR-92" target="Xh_-8GFSFD8Ks_VT3ShR-93">
          <mxGeometry width="50" height="50" relative="1" as="geometry">
            <mxPoint x="65" y="675" as="sourcePoint" />
            <mxPoint x="150" y="600" as="targetPoint" />
            <Array as="points">
              <mxPoint x="105" y="615" />
            </Array>
          </mxGeometry>
        </mxCell>
        <mxCell id="Xh_-8GFSFD8Ks_VT3ShR-96" value="" style="endArrow=none;html=1;rounded=0;" edge="1" parent="1">
          <mxGeometry width="50" height="50" relative="1" as="geometry">
            <mxPoint x="550" y="677" as="sourcePoint" />
            <mxPoint x="550" y="317" as="targetPoint" />
          </mxGeometry>
        </mxCell>
        <mxCell id="Xh_-8GFSFD8Ks_VT3ShR-98" value="" style="endArrow=none;html=1;rounded=0;exitX=1;exitY=0.5;exitDx=0;exitDy=0;exitPerimeter=0;" edge="1" parent="1" source="Xh_-8GFSFD8Ks_VT3ShR-92">
          <mxGeometry width="50" height="50" relative="1" as="geometry">
            <mxPoint x="410" y="614.5" as="sourcePoint" />
            <mxPoint x="550" y="615" as="targetPoint" />
          </mxGeometry>
        </mxCell>
        <mxCell id="Xh_-8GFSFD8Ks_VT3ShR-99" value="" style="endArrow=none;html=1;rounded=0;exitX=1;exitY=0.5;exitDx=0;exitDy=0;exitPerimeter=0;" edge="1" parent="1" source="Xh_-8GFSFD8Ks_VT3ShR-91">
          <mxGeometry width="50" height="50" relative="1" as="geometry">
            <mxPoint x="480" y="394.5" as="sourcePoint" />
            <mxPoint x="550" y="395" as="targetPoint" />
          </mxGeometry>
        </mxCell>
        <mxCell id="Xh_-8GFSFD8Ks_VT3ShR-100" value="&lt;font style=&quot;font-size: 19px;&quot;&gt;10.0.0.0/8&lt;/font&gt;" style="text;html=1;align=center;verticalAlign=middle;resizable=0;points=[];autosize=1;strokeColor=none;fillColor=none;" vertex="1" parent="1">
          <mxGeometry x="560" y="480" width="110" height="40" as="geometry" />
        </mxCell>
        <mxCell id="Xh_-8GFSFD8Ks_VT3ShR-105" value="&lt;font style=&quot;font-size: 19px;&quot;&gt;192.168.13.3&lt;/font&gt;" style="text;html=1;align=center;verticalAlign=middle;resizable=0;points=[];autosize=1;strokeColor=none;fillColor=none;" vertex="1" parent="1">
          <mxGeometry x="140" y="570" width="130" height="40" as="geometry" />
        </mxCell>
        <mxCell id="Xh_-8GFSFD8Ks_VT3ShR-106" value="&lt;font style=&quot;font-size: 19px;&quot;&gt;R1&lt;/font&gt;" style="text;html=1;align=center;verticalAlign=middle;resizable=0;points=[];autosize=1;strokeColor=none;fillColor=none;" vertex="1" parent="1">
          <mxGeometry x="150" y="495" width="50" height="40" as="geometry" />
        </mxCell>
        <mxCell id="Xh_-8GFSFD8Ks_VT3ShR-107" value="&lt;font style=&quot;font-size: 19px;&quot;&gt;R2&lt;/font&gt;" style="text;html=1;align=center;verticalAlign=middle;resizable=0;points=[];autosize=1;strokeColor=none;fillColor=none;" vertex="1" parent="1">
          <mxGeometry x="380" y="440" width="50" height="40" as="geometry" />
        </mxCell>
        <mxCell id="Xh_-8GFSFD8Ks_VT3ShR-108" value="&lt;font style=&quot;font-size: 19px;&quot;&gt;R3&lt;/font&gt;" style="text;html=1;align=center;verticalAlign=middle;resizable=0;points=[];autosize=1;strokeColor=none;fillColor=none;" vertex="1" parent="1">
          <mxGeometry x="300" y="670" width="50" height="40" as="geometry" />
        </mxCell>
        <mxCell id="Xh_-8GFSFD8Ks_VT3ShR-109" value="&lt;font style=&quot;font-size: 19px;&quot;&gt;192.168.12.2&lt;/font&gt;" style="text;html=1;align=center;verticalAlign=middle;resizable=0;points=[];autosize=1;strokeColor=none;fillColor=none;" vertex="1" parent="1">
          <mxGeometry x="60" y="340" width="130" height="40" as="geometry" />
        </mxCell>
        <mxCell id="Xh_-8GFSFD8Ks_VT3ShR-110" value="" style="endArrow=classic;html=1;rounded=0;dashed=1;" edge="1" parent="1">
          <mxGeometry width="50" height="50" relative="1" as="geometry">
            <mxPoint x="360" y="330" as="sourcePoint" />
            <mxPoint x="40" y="480" as="targetPoint" />
            <Array as="points">
              <mxPoint x="40" y="330" />
            </Array>
          </mxGeometry>
        </mxCell>
        <mxCell id="Xh_-8GFSFD8Ks_VT3ShR-111" value="&lt;font style=&quot;font-size: 19px;&quot;&gt;RIP: 10.0.0.0/8&lt;/font&gt;&lt;div&gt;&lt;span style=&quot;font-size: 19px;&quot;&gt;Hop Count = 2&lt;/span&gt;&lt;/div&gt;" style="text;html=1;align=center;verticalAlign=middle;resizable=0;points=[];autosize=1;strokeColor=none;fillColor=none;" vertex="1" parent="1">
          <mxGeometry x="130" y="260" width="150" height="60" as="geometry" />
        </mxCell>
        <mxCell id="Xh_-8GFSFD8Ks_VT3ShR-112" value="" style="endArrow=classic;html=1;rounded=0;dashed=1;" edge="1" parent="1">
          <mxGeometry width="50" height="50" relative="1" as="geometry">
            <mxPoint x="360" y="720" as="sourcePoint" />
            <mxPoint x="40" y="580" as="targetPoint" />
            <Array as="points">
              <mxPoint x="40" y="720" />
            </Array>
          </mxGeometry>
        </mxCell>
        <mxCell id="Xh_-8GFSFD8Ks_VT3ShR-113" value="&lt;font style=&quot;font-size: 19px;&quot;&gt;RIP: 10.0.0.0/8&lt;/font&gt;&lt;div&gt;&lt;span style=&quot;font-size: 19px;&quot;&gt;Hop Count = 1&lt;/span&gt;&lt;/div&gt;&lt;div&gt;&lt;span style=&quot;font-size: 19px;&quot;&gt;Ergo, this winss&lt;/span&gt;&lt;/div&gt;" style="text;html=1;align=center;verticalAlign=middle;resizable=0;points=[];autosize=1;strokeColor=none;fillColor=none;" vertex="1" parent="1">
          <mxGeometry x="125" y="720" width="160" height="80" as="geometry" />
        </mxCell>
        <mxCell id="Xh_-8GFSFD8Ks_VT3ShR-114" value="" style="sketch=0;points=[[0.5,0,0],[1,0.5,0],[0.5,1,0],[0,0.5,0],[0.145,0.145,0],[0.8555,0.145,0],[0.855,0.8555,0],[0.145,0.855,0]];verticalLabelPosition=bottom;html=1;verticalAlign=top;aspect=fixed;align=center;pointerEvents=1;shape=mxgraph.cisco19.rect;prIcon=router;fillColor=#FAFAFA;strokeColor=#005073;" vertex="1" parent="1">
          <mxGeometry x="220" y="350" width="90" height="90" as="geometry" />
        </mxCell>
      </root>
    </mxGraphModel>
  </diagram>
</mxfile>
